<?xml version="1.0" encoding="utf-8" standalone="no"?>
<!DOCTYPE svg PUBLIC "-//W3C//DTD SVG 1.1//EN"
  "http://www.w3.org/Graphics/SVG/1.1/DTD/svg11.dtd">
<svg xmlns:xlink="http://www.w3.org/1999/xlink" width="460.8pt" height="345.6pt" viewBox="0 0 460.8 345.6" xmlns="http://www.w3.org/2000/svg" version="1.1">
 <metadata>
  <rdf:RDF xmlns:dc="http://purl.org/dc/elements/1.1/" xmlns:cc="http://creativecommons.org/ns#" xmlns:rdf="http://www.w3.org/1999/02/22-rdf-syntax-ns#">
   <cc:Work>
    <dc:type rdf:resource="http://purl.org/dc/dcmitype/StillImage"/>
    <dc:date>2023-12-04T12:02:51.577415</dc:date>
    <dc:format>image/svg+xml</dc:format>
    <dc:creator>
     <cc:Agent>
      <dc:title>Matplotlib v3.8.1, https://matplotlib.org/</dc:title>
     </cc:Agent>
    </dc:creator>
   </cc:Work>
  </rdf:RDF>
 </metadata>
 <defs>
  <style type="text/css">*{stroke-linejoin: round; stroke-linecap: butt}</style>
 </defs>
 <g id="figure_1">
  <g id="patch_1">
   <path d="M 0 345.6 
L 460.8 345.6 
L 460.8 0 
L 0 0 
L 0 345.6 
z
" style="fill: none; opacity: 0"/>
  </g>
  <g id="axes_1">
   <g id="patch_2">
    <path d="M 57.6 307.584 
L 414.72 307.584 
L 414.72 41.472 
L 57.6 41.472 
z
" style="fill: #ffffff"/>
   </g>
   <g id="PathCollection_1">
    <defs>
     <path id="ma08dd62245" d="M -1.581139 1.581139 
L 1.581139 1.581139 
L 1.581139 -1.581139 
L -1.581139 -1.581139 
z
" style="stroke: #255f85"/>
    </defs>
    <g clip-path="url(#pacd7b2cdaf)">
     <use xlink:href="#ma08dd62245" x="73.832727" y="295.488" style="fill: #255f85; stroke: #255f85"/>
     <use xlink:href="#ma08dd62245" x="73.850702" y="295.487674" style="fill: #255f85; stroke: #255f85"/>
     <use xlink:href="#ma08dd62245" x="75.0055" y="295.434714" style="fill: #255f85; stroke: #255f85"/>
     <use xlink:href="#ma08dd62245" x="73.89288" y="295.486673" style="fill: #255f85; stroke: #255f85"/>
     <use xlink:href="#ma08dd62245" x="77.619981" y="295.153159" style="fill: #255f85; stroke: #255f85"/>
     <use xlink:href="#ma08dd62245" x="74.885683" y="295.433921" style="fill: #255f85; stroke: #255f85"/>
     <use xlink:href="#ma08dd62245" x="74.000179" y="295.48256" style="fill: #255f85; stroke: #255f85"/>
     <use xlink:href="#ma08dd62245" x="73.838706" y="295.487896" style="fill: #255f85; stroke: #255f85"/>
     <use xlink:href="#ma08dd62245" x="74.147705" y="295.478044" style="fill: #255f85; stroke: #255f85"/>
     <use xlink:href="#ma08dd62245" x="85.250601" y="292.735767" style="fill: #255f85; stroke: #255f85"/>
     <use xlink:href="#ma08dd62245" x="77.062281" y="295.171044" style="fill: #255f85; stroke: #255f85"/>
     <use xlink:href="#ma08dd62245" x="73.886395" y="295.486935" style="fill: #255f85; stroke: #255f85"/>
     <use xlink:href="#ma08dd62245" x="80.805063" y="294.264785" style="fill: #255f85; stroke: #255f85"/>
     <use xlink:href="#ma08dd62245" x="87.644461" y="290.378824" style="fill: #255f85; stroke: #255f85"/>
     <use xlink:href="#ma08dd62245" x="74.434017" y="295.462437" style="fill: #255f85; stroke: #255f85"/>
     <use xlink:href="#ma08dd62245" x="134.199199" y="273.153512" style="fill: #255f85; stroke: #255f85"/>
     <use xlink:href="#ma08dd62245" x="75.691692" y="295.367907" style="fill: #255f85; stroke: #255f85"/>
     <use xlink:href="#ma08dd62245" x="76.073285" y="295.312675" style="fill: #255f85; stroke: #255f85"/>
     <use xlink:href="#ma08dd62245" x="75.65604" y="295.351735" style="fill: #255f85; stroke: #255f85"/>
     <use xlink:href="#ma08dd62245" x="84.350629" y="292.933281" style="fill: #255f85; stroke: #255f85"/>
     <use xlink:href="#ma08dd62245" x="74.475721" y="295.458758" style="fill: #255f85; stroke: #255f85"/>
     <use xlink:href="#ma08dd62245" x="73.959748" y="295.485393" style="fill: #255f85; stroke: #255f85"/>
     <use xlink:href="#ma08dd62245" x="83.192009" y="293.735615" style="fill: #255f85; stroke: #255f85"/>
     <use xlink:href="#ma08dd62245" x="75.367457" y="295.375134" style="fill: #255f85; stroke: #255f85"/>
     <use xlink:href="#ma08dd62245" x="144.832355" y="256.973045" style="fill: #255f85; stroke: #255f85"/>
     <use xlink:href="#ma08dd62245" x="143.440269" y="270.434173" style="fill: #255f85; stroke: #255f85"/>
     <use xlink:href="#ma08dd62245" x="110.650304" y="280.414841" style="fill: #255f85; stroke: #255f85"/>
     <use xlink:href="#ma08dd62245" x="74.276111" y="295.471714" style="fill: #255f85; stroke: #255f85"/>
     <use xlink:href="#ma08dd62245" x="74.521176" y="295.452354" style="fill: #255f85; stroke: #255f85"/>
     <use xlink:href="#ma08dd62245" x="86.94666" y="292.70051" style="fill: #255f85; stroke: #255f85"/>
     <use xlink:href="#ma08dd62245" x="77.022328" y="294.992508" style="fill: #255f85; stroke: #255f85"/>
     <use xlink:href="#ma08dd62245" x="166.359151" y="255.912037" style="fill: #255f85; stroke: #255f85"/>
     <use xlink:href="#ma08dd62245" x="139.056469" y="272.012503" style="fill: #255f85; stroke: #255f85"/>
     <use xlink:href="#ma08dd62245" x="294.320583" y="157.184755" style="fill: #255f85; stroke: #255f85"/>
     <use xlink:href="#ma08dd62245" x="76.580558" y="295.263784" style="fill: #255f85; stroke: #255f85"/>
     <use xlink:href="#ma08dd62245" x="75.430136" y="295.394377" style="fill: #255f85; stroke: #255f85"/>
     <use xlink:href="#ma08dd62245" x="81.010167" y="294.540329" style="fill: #255f85; stroke: #255f85"/>
     <use xlink:href="#ma08dd62245" x="98.344493" y="287.907121" style="fill: #255f85; stroke: #255f85"/>
     <use xlink:href="#ma08dd62245" x="101.370629" y="289.610469" style="fill: #255f85; stroke: #255f85"/>
     <use xlink:href="#ma08dd62245" x="355.519196" y="87.401696" style="fill: #255f85; stroke: #255f85"/>
     <use xlink:href="#ma08dd62245" x="145.492345" y="264.898804" style="fill: #255f85; stroke: #255f85"/>
     <use xlink:href="#ma08dd62245" x="76.090977" y="295.220171" style="fill: #255f85; stroke: #255f85"/>
     <use xlink:href="#ma08dd62245" x="254.925056" y="202.773296" style="fill: #255f85; stroke: #255f85"/>
     <use xlink:href="#ma08dd62245" x="260.446515" y="189.14056" style="fill: #255f85; stroke: #255f85"/>
     <use xlink:href="#ma08dd62245" x="106.084638" y="285.287786" style="fill: #255f85; stroke: #255f85"/>
     <use xlink:href="#ma08dd62245" x="282.071689" y="149.659672" style="fill: #255f85; stroke: #255f85"/>
     <use xlink:href="#ma08dd62245" x="363.644912" y="100.818216" style="fill: #255f85; stroke: #255f85"/>
     <use xlink:href="#ma08dd62245" x="118.57872" y="279.054508" style="fill: #255f85; stroke: #255f85"/>
     <use xlink:href="#ma08dd62245" x="224.515283" y="212.12959" style="fill: #255f85; stroke: #255f85"/>
     <use xlink:href="#ma08dd62245" x="127.036912" y="273.999674" style="fill: #255f85; stroke: #255f85"/>
     <use xlink:href="#ma08dd62245" x="118.082864" y="279.851114" style="fill: #255f85; stroke: #255f85"/>
     <use xlink:href="#ma08dd62245" x="233.664988" y="222.192014" style="fill: #255f85; stroke: #255f85"/>
     <use xlink:href="#ma08dd62245" x="189.710604" y="232.182591" style="fill: #255f85; stroke: #255f85"/>
     <use xlink:href="#ma08dd62245" x="99.712723" y="288.601676" style="fill: #255f85; stroke: #255f85"/>
     <use xlink:href="#ma08dd62245" x="99.47554" y="288.536627" style="fill: #255f85; stroke: #255f85"/>
     <use xlink:href="#ma08dd62245" x="171.694583" y="232.998113" style="fill: #255f85; stroke: #255f85"/>
     <use xlink:href="#ma08dd62245" x="108.287335" y="284.988668" style="fill: #255f85; stroke: #255f85"/>
     <use xlink:href="#ma08dd62245" x="81.461994" y="294.600728" style="fill: #255f85; stroke: #255f85"/>
     <use xlink:href="#ma08dd62245" x="114.62185" y="280.324511" style="fill: #255f85; stroke: #255f85"/>
     <use xlink:href="#ma08dd62245" x="86.535603" y="292.014748" style="fill: #255f85; stroke: #255f85"/>
     <use xlink:href="#ma08dd62245" x="286.926668" y="118.361375" style="fill: #255f85; stroke: #255f85"/>
     <use xlink:href="#ma08dd62245" x="222.436975" y="220.208209" style="fill: #255f85; stroke: #255f85"/>
     <use xlink:href="#ma08dd62245" x="230.482407" y="205.777059" style="fill: #255f85; stroke: #255f85"/>
     <use xlink:href="#ma08dd62245" x="104.014121" y="285.068993" style="fill: #255f85; stroke: #255f85"/>
     <use xlink:href="#ma08dd62245" x="281.501753" y="168.289286" style="fill: #255f85; stroke: #255f85"/>
     <use xlink:href="#ma08dd62245" x="383.928007" y="128.255557" style="fill: #255f85; stroke: #255f85"/>
     <use xlink:href="#ma08dd62245" x="311.255176" y="136.711189" style="fill: #255f85; stroke: #255f85"/>
     <use xlink:href="#ma08dd62245" x="281.885931" y="169.245992" style="fill: #255f85; stroke: #255f85"/>
     <use xlink:href="#ma08dd62245" x="236.532539" y="178.49569" style="fill: #255f85; stroke: #255f85"/>
     <use xlink:href="#ma08dd62245" x="155.28939" y="266.503453" style="fill: #255f85; stroke: #255f85"/>
     <use xlink:href="#ma08dd62245" x="256.529876" y="193.623717" style="fill: #255f85; stroke: #255f85"/>
     <use xlink:href="#ma08dd62245" x="398.487273" y="70.248421" style="fill: #255f85; stroke: #255f85"/>
     <use xlink:href="#ma08dd62245" x="277.929914" y="180.753442" style="fill: #255f85; stroke: #255f85"/>
    </g>
   </g>
   <g id="PathCollection_2">
    <defs>
     <path id="me701093fc1" d="M 0 1.581139 
C 0.419323 1.581139 0.821528 1.41454 1.118034 1.118034 
C 1.41454 0.821528 1.581139 0.419323 1.581139 0 
C 1.581139 -0.419323 1.41454 -0.821528 1.118034 -1.118034 
C 0.821528 -1.41454 0.419323 -1.581139 0 -1.581139 
C -0.419323 -1.581139 -0.821528 -1.41454 -1.118034 -1.118034 
C -1.41454 -0.821528 -1.581139 -0.419323 -1.581139 0 
C -1.581139 0.419323 -1.41454 0.821528 -1.118034 1.118034 
C -0.821528 1.41454 -0.419323 1.581139 0 1.581139 
z
" style="stroke: #ffc857"/>
    </defs>
    <g clip-path="url(#pacd7b2cdaf)">
     <use xlink:href="#me701093fc1" x="73.832727" y="295.488" style="fill: #ffc857; stroke: #ffc857"/>
     <use xlink:href="#me701093fc1" x="73.850702" y="295.487718" style="fill: #ffc857; stroke: #ffc857"/>
     <use xlink:href="#me701093fc1" x="75.0055" y="295.393923" style="fill: #ffc857; stroke: #ffc857"/>
     <use xlink:href="#me701093fc1" x="73.89288" y="295.486807" style="fill: #ffc857; stroke: #ffc857"/>
     <use xlink:href="#me701093fc1" x="77.619981" y="294.531159" style="fill: #ffc857; stroke: #ffc857"/>
     <use xlink:href="#me701093fc1" x="74.885683" y="295.436659" style="fill: #ffc857; stroke: #ffc857"/>
     <use xlink:href="#me701093fc1" x="74.000179" y="295.483488" style="fill: #ffc857; stroke: #ffc857"/>
     <use xlink:href="#me701093fc1" x="73.838706" y="295.487913" style="fill: #ffc857; stroke: #ffc857"/>
     <use xlink:href="#me701093fc1" x="74.147705" y="295.476677" style="fill: #ffc857; stroke: #ffc857"/>
     <use xlink:href="#me701093fc1" x="85.250601" y="289.63738" style="fill: #ffc857; stroke: #ffc857"/>
     <use xlink:href="#me701093fc1" x="77.062281" y="294.794009" style="fill: #ffc857; stroke: #ffc857"/>
     <use xlink:href="#me701093fc1" x="73.886395" y="295.486891" style="fill: #ffc857; stroke: #ffc857"/>
     <use xlink:href="#me701093fc1" x="80.805063" y="293.182435" style="fill: #ffc857; stroke: #ffc857"/>
     <use xlink:href="#me701093fc1" x="87.644461" y="289.107172" style="fill: #ffc857; stroke: #ffc857"/>
     <use xlink:href="#me701093fc1" x="74.434017" y="295.465542" style="fill: #ffc857; stroke: #ffc857"/>
     <use xlink:href="#me701093fc1" x="134.199199" y="226.92532" style="fill: #ffc857; stroke: #ffc857"/>
     <use xlink:href="#me701093fc1" x="75.691692" y="295.323716" style="fill: #ffc857; stroke: #ffc857"/>
     <use xlink:href="#me701093fc1" x="76.073285" y="295.238211" style="fill: #ffc857; stroke: #ffc857"/>
     <use xlink:href="#me701093fc1" x="75.65604" y="295.366247" style="fill: #ffc857; stroke: #ffc857"/>
     <use xlink:href="#me701093fc1" x="84.350629" y="290.57357" style="fill: #ffc857; stroke: #ffc857"/>
     <use xlink:href="#me701093fc1" x="74.475721" y="295.453657" style="fill: #ffc857; stroke: #ffc857"/>
     <use xlink:href="#me701093fc1" x="73.959748" y="295.485252" style="fill: #ffc857; stroke: #ffc857"/>
     <use xlink:href="#me701093fc1" x="83.192009" y="292.012601" style="fill: #ffc857; stroke: #ffc857"/>
     <use xlink:href="#me701093fc1" x="75.367457" y="295.364785" style="fill: #ffc857; stroke: #ffc857"/>
     <use xlink:href="#me701093fc1" x="144.832355" y="220.031372" style="fill: #ffc857; stroke: #ffc857"/>
     <use xlink:href="#me701093fc1" x="143.440269" y="225.600526" style="fill: #ffc857; stroke: #ffc857"/>
     <use xlink:href="#me701093fc1" x="110.650304" y="272.780202" style="fill: #ffc857; stroke: #ffc857"/>
     <use xlink:href="#me701093fc1" x="74.276111" y="295.464789" style="fill: #ffc857; stroke: #ffc857"/>
     <use xlink:href="#me701093fc1" x="74.521176" y="295.453943" style="fill: #ffc857; stroke: #ffc857"/>
     <use xlink:href="#me701093fc1" x="86.94666" y="286.031202" style="fill: #ffc857; stroke: #ffc857"/>
     <use xlink:href="#me701093fc1" x="77.022328" y="294.579177" style="fill: #ffc857; stroke: #ffc857"/>
     <use xlink:href="#me701093fc1" x="166.359151" y="196.66699" style="fill: #ffc857; stroke: #ffc857"/>
     <use xlink:href="#me701093fc1" x="139.056469" y="227.183482" style="fill: #ffc857; stroke: #ffc857"/>
     <use xlink:href="#me701093fc1" x="294.320583" y="53.568" style="fill: #ffc857; stroke: #ffc857"/>
     <use xlink:href="#me701093fc1" x="76.580558" y="295.06426" style="fill: #ffc857; stroke: #ffc857"/>
     <use xlink:href="#me701093fc1" x="75.430136" y="295.342539" style="fill: #ffc857; stroke: #ffc857"/>
     <use xlink:href="#me701093fc1" x="81.010167" y="293.299447" style="fill: #ffc857; stroke: #ffc857"/>
     <use xlink:href="#me701093fc1" x="98.344493" y="278.926704" style="fill: #ffc857; stroke: #ffc857"/>
     <use xlink:href="#me701093fc1" x="101.370629" y="282.074648" style="fill: #ffc857; stroke: #ffc857"/>
     <use xlink:href="#me701093fc1" x="355.519196" y="53.568" style="fill: #ffc857; stroke: #ffc857"/>
     <use xlink:href="#me701093fc1" x="145.492345" y="218.32928" style="fill: #ffc857; stroke: #ffc857"/>
     <use xlink:href="#me701093fc1" x="76.090977" y="295.105588" style="fill: #ffc857; stroke: #ffc857"/>
     <use xlink:href="#me701093fc1" x="254.925056" y="53.568" style="fill: #ffc857; stroke: #ffc857"/>
     <use xlink:href="#me701093fc1" x="260.446515" y="53.568" style="fill: #ffc857; stroke: #ffc857"/>
     <use xlink:href="#me701093fc1" x="106.084638" y="277.198397" style="fill: #ffc857; stroke: #ffc857"/>
     <use xlink:href="#me701093fc1" x="282.071689" y="53.568" style="fill: #ffc857; stroke: #ffc857"/>
     <use xlink:href="#me701093fc1" x="363.644912" y="53.568" style="fill: #ffc857; stroke: #ffc857"/>
     <use xlink:href="#me701093fc1" x="118.57872" y="253.579004" style="fill: #ffc857; stroke: #ffc857"/>
     <use xlink:href="#me701093fc1" x="224.515283" y="125.687516" style="fill: #ffc857; stroke: #ffc857"/>
     <use xlink:href="#me701093fc1" x="127.036912" y="252.193441" style="fill: #ffc857; stroke: #ffc857"/>
     <use xlink:href="#me701093fc1" x="118.082864" y="251.349342" style="fill: #ffc857; stroke: #ffc857"/>
     <use xlink:href="#me701093fc1" x="233.664988" y="53.568" style="fill: #ffc857; stroke: #ffc857"/>
     <use xlink:href="#me701093fc1" x="189.710604" y="53.568" style="fill: #ffc857; stroke: #ffc857"/>
     <use xlink:href="#me701093fc1" x="99.712723" y="280.535365" style="fill: #ffc857; stroke: #ffc857"/>
     <use xlink:href="#me701093fc1" x="99.47554" y="281.792156" style="fill: #ffc857; stroke: #ffc857"/>
     <use xlink:href="#me701093fc1" x="171.694583" y="60.775681" style="fill: #ffc857; stroke: #ffc857"/>
     <use xlink:href="#me701093fc1" x="108.287335" y="262.537779" style="fill: #ffc857; stroke: #ffc857"/>
     <use xlink:href="#me701093fc1" x="81.461994" y="294.068833" style="fill: #ffc857; stroke: #ffc857"/>
     <use xlink:href="#me701093fc1" x="114.62185" y="265.138668" style="fill: #ffc857; stroke: #ffc857"/>
     <use xlink:href="#me701093fc1" x="86.535603" y="290.037562" style="fill: #ffc857; stroke: #ffc857"/>
     <use xlink:href="#me701093fc1" x="286.926668" y="53.568" style="fill: #ffc857; stroke: #ffc857"/>
     <use xlink:href="#me701093fc1" x="222.436975" y="69.99541" style="fill: #ffc857; stroke: #ffc857"/>
     <use xlink:href="#me701093fc1" x="230.482407" y="53.568" style="fill: #ffc857; stroke: #ffc857"/>
     <use xlink:href="#me701093fc1" x="104.014121" y="276.785594" style="fill: #ffc857; stroke: #ffc857"/>
     <use xlink:href="#me701093fc1" x="281.501753" y="53.568" style="fill: #ffc857; stroke: #ffc857"/>
     <use xlink:href="#me701093fc1" x="383.928007" y="53.568" style="fill: #ffc857; stroke: #ffc857"/>
     <use xlink:href="#me701093fc1" x="311.255176" y="53.568" style="fill: #ffc857; stroke: #ffc857"/>
     <use xlink:href="#me701093fc1" x="281.885931" y="53.568" style="fill: #ffc857; stroke: #ffc857"/>
     <use xlink:href="#me701093fc1" x="236.532539" y="61.797097" style="fill: #ffc857; stroke: #ffc857"/>
     <use xlink:href="#me701093fc1" x="155.28939" y="213.853609" style="fill: #ffc857; stroke: #ffc857"/>
     <use xlink:href="#me701093fc1" x="256.529876" y="53.568" style="fill: #ffc857; stroke: #ffc857"/>
     <use xlink:href="#me701093fc1" x="398.487273" y="53.568" style="fill: #ffc857; stroke: #ffc857"/>
     <use xlink:href="#me701093fc1" x="277.929914" y="53.568" style="fill: #ffc857; stroke: #ffc857"/>
    </g>
   </g>
   <g id="matplotlib.axis_1">
    <g id="xtick_1">
     <g id="line2d_1">
      <defs>
       <path id="m7566e1ca85" d="M 0 0 
L 0 3.5 
" style="stroke: #000000; stroke-width: 0.8"/>
      </defs>
      <g>
       <use xlink:href="#m7566e1ca85" x="73.832346" y="307.584" style="stroke: #000000; stroke-width: 0.8"/>
      </g>
     </g>
     <g id="text_1">
      <!-- 0 -->
      <g transform="translate(70.651096 322.182437) scale(0.1 -0.1)">
       <defs>
        <path id="DejaVuSans-30" d="M 2034 4250 
Q 1547 4250 1301 3770 
Q 1056 3291 1056 2328 
Q 1056 1369 1301 889 
Q 1547 409 2034 409 
Q 2525 409 2770 889 
Q 3016 1369 3016 2328 
Q 3016 3291 2770 3770 
Q 2525 4250 2034 4250 
z
M 2034 4750 
Q 2819 4750 3233 4129 
Q 3647 3509 3647 2328 
Q 3647 1150 3233 529 
Q 2819 -91 2034 -91 
Q 1250 -91 836 529 
Q 422 1150 422 2328 
Q 422 3509 836 4129 
Q 1250 4750 2034 4750 
z
" transform="scale(0.015625)"/>
       </defs>
       <use xlink:href="#DejaVuSans-30"/>
      </g>
     </g>
    </g>
    <g id="xtick_2">
     <g id="line2d_2">
      <g>
       <use xlink:href="#m7566e1ca85" x="137.669095" y="307.584" style="stroke: #000000; stroke-width: 0.8"/>
      </g>
     </g>
     <g id="text_2">
      <!-- 1 -->
      <g transform="translate(134.487845 322.182437) scale(0.1 -0.1)">
       <defs>
        <path id="DejaVuSans-31" d="M 794 531 
L 1825 531 
L 1825 4091 
L 703 3866 
L 703 4441 
L 1819 4666 
L 2450 4666 
L 2450 531 
L 3481 531 
L 3481 0 
L 794 0 
L 794 531 
z
" transform="scale(0.015625)"/>
       </defs>
       <use xlink:href="#DejaVuSans-31"/>
      </g>
     </g>
    </g>
    <g id="xtick_3">
     <g id="line2d_3">
      <g>
       <use xlink:href="#m7566e1ca85" x="201.505844" y="307.584" style="stroke: #000000; stroke-width: 0.8"/>
      </g>
     </g>
     <g id="text_3">
      <!-- 2 -->
      <g transform="translate(198.324594 322.182437) scale(0.1 -0.1)">
       <defs>
        <path id="DejaVuSans-32" d="M 1228 531 
L 3431 531 
L 3431 0 
L 469 0 
L 469 531 
Q 828 903 1448 1529 
Q 2069 2156 2228 2338 
Q 2531 2678 2651 2914 
Q 2772 3150 2772 3378 
Q 2772 3750 2511 3984 
Q 2250 4219 1831 4219 
Q 1534 4219 1204 4116 
Q 875 4013 500 3803 
L 500 4441 
Q 881 4594 1212 4672 
Q 1544 4750 1819 4750 
Q 2544 4750 2975 4387 
Q 3406 4025 3406 3419 
Q 3406 3131 3298 2873 
Q 3191 2616 2906 2266 
Q 2828 2175 2409 1742 
Q 1991 1309 1228 531 
z
" transform="scale(0.015625)"/>
       </defs>
       <use xlink:href="#DejaVuSans-32"/>
      </g>
     </g>
    </g>
    <g id="xtick_4">
     <g id="line2d_4">
      <g>
       <use xlink:href="#m7566e1ca85" x="265.342594" y="307.584" style="stroke: #000000; stroke-width: 0.8"/>
      </g>
     </g>
     <g id="text_4">
      <!-- 3 -->
      <g transform="translate(262.161344 322.182437) scale(0.1 -0.1)">
       <defs>
        <path id="DejaVuSans-33" d="M 2597 2516 
Q 3050 2419 3304 2112 
Q 3559 1806 3559 1356 
Q 3559 666 3084 287 
Q 2609 -91 1734 -91 
Q 1441 -91 1130 -33 
Q 819 25 488 141 
L 488 750 
Q 750 597 1062 519 
Q 1375 441 1716 441 
Q 2309 441 2620 675 
Q 2931 909 2931 1356 
Q 2931 1769 2642 2001 
Q 2353 2234 1838 2234 
L 1294 2234 
L 1294 2753 
L 1863 2753 
Q 2328 2753 2575 2939 
Q 2822 3125 2822 3475 
Q 2822 3834 2567 4026 
Q 2313 4219 1838 4219 
Q 1578 4219 1281 4162 
Q 984 4106 628 3988 
L 628 4550 
Q 988 4650 1302 4700 
Q 1616 4750 1894 4750 
Q 2613 4750 3031 4423 
Q 3450 4097 3450 3541 
Q 3450 3153 3228 2886 
Q 3006 2619 2597 2516 
z
" transform="scale(0.015625)"/>
       </defs>
       <use xlink:href="#DejaVuSans-33"/>
      </g>
     </g>
    </g>
    <g id="xtick_5">
     <g id="line2d_5">
      <g>
       <use xlink:href="#m7566e1ca85" x="329.179343" y="307.584" style="stroke: #000000; stroke-width: 0.8"/>
      </g>
     </g>
     <g id="text_5">
      <!-- 4 -->
      <g transform="translate(325.998093 322.182437) scale(0.1 -0.1)">
       <defs>
        <path id="DejaVuSans-34" d="M 2419 4116 
L 825 1625 
L 2419 1625 
L 2419 4116 
z
M 2253 4666 
L 3047 4666 
L 3047 1625 
L 3713 1625 
L 3713 1100 
L 3047 1100 
L 3047 0 
L 2419 0 
L 2419 1100 
L 313 1100 
L 313 1709 
L 2253 4666 
z
" transform="scale(0.015625)"/>
       </defs>
       <use xlink:href="#DejaVuSans-34"/>
      </g>
     </g>
    </g>
    <g id="xtick_6">
     <g id="line2d_6">
      <g>
       <use xlink:href="#m7566e1ca85" x="393.016092" y="307.584" style="stroke: #000000; stroke-width: 0.8"/>
      </g>
     </g>
     <g id="text_6">
      <!-- 5 -->
      <g transform="translate(389.834842 322.182437) scale(0.1 -0.1)">
       <defs>
        <path id="DejaVuSans-35" d="M 691 4666 
L 3169 4666 
L 3169 4134 
L 1269 4134 
L 1269 2991 
Q 1406 3038 1543 3061 
Q 1681 3084 1819 3084 
Q 2600 3084 3056 2656 
Q 3513 2228 3513 1497 
Q 3513 744 3044 326 
Q 2575 -91 1722 -91 
Q 1428 -91 1123 -41 
Q 819 9 494 109 
L 494 744 
Q 775 591 1075 516 
Q 1375 441 1709 441 
Q 2250 441 2565 725 
Q 2881 1009 2881 1497 
Q 2881 1984 2565 2268 
Q 2250 2553 1709 2553 
Q 1456 2553 1204 2497 
Q 953 2441 691 2322 
L 691 4666 
z
" transform="scale(0.015625)"/>
       </defs>
       <use xlink:href="#DejaVuSans-35"/>
      </g>
     </g>
    </g>
    <g id="text_7">
     <!-- Number $N$ of permanent paths -->
     <g transform="translate(159.56 335.862125) scale(0.1 -0.1)">
      <defs>
       <path id="DejaVuSans-4e" d="M 628 4666 
L 1478 4666 
L 3547 763 
L 3547 4666 
L 4159 4666 
L 4159 0 
L 3309 0 
L 1241 3903 
L 1241 0 
L 628 0 
L 628 4666 
z
" transform="scale(0.015625)"/>
       <path id="DejaVuSans-75" d="M 544 1381 
L 544 3500 
L 1119 3500 
L 1119 1403 
Q 1119 906 1312 657 
Q 1506 409 1894 409 
Q 2359 409 2629 706 
Q 2900 1003 2900 1516 
L 2900 3500 
L 3475 3500 
L 3475 0 
L 2900 0 
L 2900 538 
Q 2691 219 2414 64 
Q 2138 -91 1772 -91 
Q 1169 -91 856 284 
Q 544 659 544 1381 
z
M 1991 3584 
L 1991 3584 
z
" transform="scale(0.015625)"/>
       <path id="DejaVuSans-6d" d="M 3328 2828 
Q 3544 3216 3844 3400 
Q 4144 3584 4550 3584 
Q 5097 3584 5394 3201 
Q 5691 2819 5691 2113 
L 5691 0 
L 5113 0 
L 5113 2094 
Q 5113 2597 4934 2840 
Q 4756 3084 4391 3084 
Q 3944 3084 3684 2787 
Q 3425 2491 3425 1978 
L 3425 0 
L 2847 0 
L 2847 2094 
Q 2847 2600 2669 2842 
Q 2491 3084 2119 3084 
Q 1678 3084 1418 2786 
Q 1159 2488 1159 1978 
L 1159 0 
L 581 0 
L 581 3500 
L 1159 3500 
L 1159 2956 
Q 1356 3278 1631 3431 
Q 1906 3584 2284 3584 
Q 2666 3584 2933 3390 
Q 3200 3197 3328 2828 
z
" transform="scale(0.015625)"/>
       <path id="DejaVuSans-62" d="M 3116 1747 
Q 3116 2381 2855 2742 
Q 2594 3103 2138 3103 
Q 1681 3103 1420 2742 
Q 1159 2381 1159 1747 
Q 1159 1113 1420 752 
Q 1681 391 2138 391 
Q 2594 391 2855 752 
Q 3116 1113 3116 1747 
z
M 1159 2969 
Q 1341 3281 1617 3432 
Q 1894 3584 2278 3584 
Q 2916 3584 3314 3078 
Q 3713 2572 3713 1747 
Q 3713 922 3314 415 
Q 2916 -91 2278 -91 
Q 1894 -91 1617 61 
Q 1341 213 1159 525 
L 1159 0 
L 581 0 
L 581 4863 
L 1159 4863 
L 1159 2969 
z
" transform="scale(0.015625)"/>
       <path id="DejaVuSans-65" d="M 3597 1894 
L 3597 1613 
L 953 1613 
Q 991 1019 1311 708 
Q 1631 397 2203 397 
Q 2534 397 2845 478 
Q 3156 559 3463 722 
L 3463 178 
Q 3153 47 2828 -22 
Q 2503 -91 2169 -91 
Q 1331 -91 842 396 
Q 353 884 353 1716 
Q 353 2575 817 3079 
Q 1281 3584 2069 3584 
Q 2775 3584 3186 3129 
Q 3597 2675 3597 1894 
z
M 3022 2063 
Q 3016 2534 2758 2815 
Q 2500 3097 2075 3097 
Q 1594 3097 1305 2825 
Q 1016 2553 972 2059 
L 3022 2063 
z
" transform="scale(0.015625)"/>
       <path id="DejaVuSans-72" d="M 2631 2963 
Q 2534 3019 2420 3045 
Q 2306 3072 2169 3072 
Q 1681 3072 1420 2755 
Q 1159 2438 1159 1844 
L 1159 0 
L 581 0 
L 581 3500 
L 1159 3500 
L 1159 2956 
Q 1341 3275 1631 3429 
Q 1922 3584 2338 3584 
Q 2397 3584 2469 3576 
Q 2541 3569 2628 3553 
L 2631 2963 
z
" transform="scale(0.015625)"/>
       <path id="DejaVuSans-20" transform="scale(0.015625)"/>
       <path id="DejaVuSans-Oblique-4e" d="M 1081 4666 
L 1931 4666 
L 3219 666 
L 4000 4666 
L 4616 4666 
L 3706 0 
L 2853 0 
L 1569 4025 
L 788 0 
L 172 0 
L 1081 4666 
z
" transform="scale(0.015625)"/>
       <path id="DejaVuSans-6f" d="M 1959 3097 
Q 1497 3097 1228 2736 
Q 959 2375 959 1747 
Q 959 1119 1226 758 
Q 1494 397 1959 397 
Q 2419 397 2687 759 
Q 2956 1122 2956 1747 
Q 2956 2369 2687 2733 
Q 2419 3097 1959 3097 
z
M 1959 3584 
Q 2709 3584 3137 3096 
Q 3566 2609 3566 1747 
Q 3566 888 3137 398 
Q 2709 -91 1959 -91 
Q 1206 -91 779 398 
Q 353 888 353 1747 
Q 353 2609 779 3096 
Q 1206 3584 1959 3584 
z
" transform="scale(0.015625)"/>
       <path id="DejaVuSans-66" d="M 2375 4863 
L 2375 4384 
L 1825 4384 
Q 1516 4384 1395 4259 
Q 1275 4134 1275 3809 
L 1275 3500 
L 2222 3500 
L 2222 3053 
L 1275 3053 
L 1275 0 
L 697 0 
L 697 3053 
L 147 3053 
L 147 3500 
L 697 3500 
L 697 3744 
Q 697 4328 969 4595 
Q 1241 4863 1831 4863 
L 2375 4863 
z
" transform="scale(0.015625)"/>
       <path id="DejaVuSans-70" d="M 1159 525 
L 1159 -1331 
L 581 -1331 
L 581 3500 
L 1159 3500 
L 1159 2969 
Q 1341 3281 1617 3432 
Q 1894 3584 2278 3584 
Q 2916 3584 3314 3078 
Q 3713 2572 3713 1747 
Q 3713 922 3314 415 
Q 2916 -91 2278 -91 
Q 1894 -91 1617 61 
Q 1341 213 1159 525 
z
M 3116 1747 
Q 3116 2381 2855 2742 
Q 2594 3103 2138 3103 
Q 1681 3103 1420 2742 
Q 1159 2381 1159 1747 
Q 1159 1113 1420 752 
Q 1681 391 2138 391 
Q 2594 391 2855 752 
Q 3116 1113 3116 1747 
z
" transform="scale(0.015625)"/>
       <path id="DejaVuSans-61" d="M 2194 1759 
Q 1497 1759 1228 1600 
Q 959 1441 959 1056 
Q 959 750 1161 570 
Q 1363 391 1709 391 
Q 2188 391 2477 730 
Q 2766 1069 2766 1631 
L 2766 1759 
L 2194 1759 
z
M 3341 1997 
L 3341 0 
L 2766 0 
L 2766 531 
Q 2569 213 2275 61 
Q 1981 -91 1556 -91 
Q 1019 -91 701 211 
Q 384 513 384 1019 
Q 384 1609 779 1909 
Q 1175 2209 1959 2209 
L 2766 2209 
L 2766 2266 
Q 2766 2663 2505 2880 
Q 2244 3097 1772 3097 
Q 1472 3097 1187 3025 
Q 903 2953 641 2809 
L 641 3341 
Q 956 3463 1253 3523 
Q 1550 3584 1831 3584 
Q 2591 3584 2966 3190 
Q 3341 2797 3341 1997 
z
" transform="scale(0.015625)"/>
       <path id="DejaVuSans-6e" d="M 3513 2113 
L 3513 0 
L 2938 0 
L 2938 2094 
Q 2938 2591 2744 2837 
Q 2550 3084 2163 3084 
Q 1697 3084 1428 2787 
Q 1159 2491 1159 1978 
L 1159 0 
L 581 0 
L 581 3500 
L 1159 3500 
L 1159 2956 
Q 1366 3272 1645 3428 
Q 1925 3584 2291 3584 
Q 2894 3584 3203 3211 
Q 3513 2838 3513 2113 
z
" transform="scale(0.015625)"/>
       <path id="DejaVuSans-74" d="M 1172 4494 
L 1172 3500 
L 2356 3500 
L 2356 3053 
L 1172 3053 
L 1172 1153 
Q 1172 725 1289 603 
Q 1406 481 1766 481 
L 2356 481 
L 2356 0 
L 1766 0 
Q 1100 0 847 248 
Q 594 497 594 1153 
L 594 3053 
L 172 3053 
L 172 3500 
L 594 3500 
L 594 4494 
L 1172 4494 
z
" transform="scale(0.015625)"/>
       <path id="DejaVuSans-68" d="M 3513 2113 
L 3513 0 
L 2938 0 
L 2938 2094 
Q 2938 2591 2744 2837 
Q 2550 3084 2163 3084 
Q 1697 3084 1428 2787 
Q 1159 2491 1159 1978 
L 1159 0 
L 581 0 
L 581 4863 
L 1159 4863 
L 1159 2956 
Q 1366 3272 1645 3428 
Q 1925 3584 2291 3584 
Q 2894 3584 3203 3211 
Q 3513 2838 3513 2113 
z
" transform="scale(0.015625)"/>
       <path id="DejaVuSans-73" d="M 2834 3397 
L 2834 2853 
Q 2591 2978 2328 3040 
Q 2066 3103 1784 3103 
Q 1356 3103 1142 2972 
Q 928 2841 928 2578 
Q 928 2378 1081 2264 
Q 1234 2150 1697 2047 
L 1894 2003 
Q 2506 1872 2764 1633 
Q 3022 1394 3022 966 
Q 3022 478 2636 193 
Q 2250 -91 1575 -91 
Q 1294 -91 989 -36 
Q 684 19 347 128 
L 347 722 
Q 666 556 975 473 
Q 1284 391 1588 391 
Q 1994 391 2212 530 
Q 2431 669 2431 922 
Q 2431 1156 2273 1281 
Q 2116 1406 1581 1522 
L 1381 1569 
Q 847 1681 609 1914 
Q 372 2147 372 2553 
Q 372 3047 722 3315 
Q 1072 3584 1716 3584 
Q 2034 3584 2315 3537 
Q 2597 3491 2834 3397 
z
" transform="scale(0.015625)"/>
      </defs>
      <use xlink:href="#DejaVuSans-4e" transform="translate(0 0.015625)"/>
      <use xlink:href="#DejaVuSans-75" transform="translate(74.804688 0.015625)"/>
      <use xlink:href="#DejaVuSans-6d" transform="translate(138.183594 0.015625)"/>
      <use xlink:href="#DejaVuSans-62" transform="translate(235.595703 0.015625)"/>
      <use xlink:href="#DejaVuSans-65" transform="translate(299.072266 0.015625)"/>
      <use xlink:href="#DejaVuSans-72" transform="translate(360.595703 0.015625)"/>
      <use xlink:href="#DejaVuSans-20" transform="translate(401.708984 0.015625)"/>
      <use xlink:href="#DejaVuSans-Oblique-4e" transform="translate(433.496094 0.015625)"/>
      <use xlink:href="#DejaVuSans-20" transform="translate(508.300781 0.015625)"/>
      <use xlink:href="#DejaVuSans-6f" transform="translate(540.087891 0.015625)"/>
      <use xlink:href="#DejaVuSans-66" transform="translate(601.269531 0.015625)"/>
      <use xlink:href="#DejaVuSans-20" transform="translate(636.474609 0.015625)"/>
      <use xlink:href="#DejaVuSans-70" transform="translate(668.261719 0.015625)"/>
      <use xlink:href="#DejaVuSans-65" transform="translate(731.738281 0.015625)"/>
      <use xlink:href="#DejaVuSans-72" transform="translate(793.261719 0.015625)"/>
      <use xlink:href="#DejaVuSans-6d" transform="translate(834.375 0.015625)"/>
      <use xlink:href="#DejaVuSans-61" transform="translate(931.787109 0.015625)"/>
      <use xlink:href="#DejaVuSans-6e" transform="translate(993.066406 0.015625)"/>
      <use xlink:href="#DejaVuSans-65" transform="translate(1056.445312 0.015625)"/>
      <use xlink:href="#DejaVuSans-6e" transform="translate(1117.96875 0.015625)"/>
      <use xlink:href="#DejaVuSans-74" transform="translate(1181.347656 0.015625)"/>
      <use xlink:href="#DejaVuSans-20" transform="translate(1220.556641 0.015625)"/>
      <use xlink:href="#DejaVuSans-70" transform="translate(1252.34375 0.015625)"/>
      <use xlink:href="#DejaVuSans-61" transform="translate(1315.820312 0.015625)"/>
      <use xlink:href="#DejaVuSans-74" transform="translate(1377.099609 0.015625)"/>
      <use xlink:href="#DejaVuSans-68" transform="translate(1416.308594 0.015625)"/>
      <use xlink:href="#DejaVuSans-73" transform="translate(1479.6875 0.015625)"/>
     </g>
    </g>
    <g id="text_8">
     <!-- 1e8 -->
     <g transform="translate(395.841875 334.860562) scale(0.1 -0.1)">
      <defs>
       <path id="DejaVuSans-38" d="M 2034 2216 
Q 1584 2216 1326 1975 
Q 1069 1734 1069 1313 
Q 1069 891 1326 650 
Q 1584 409 2034 409 
Q 2484 409 2743 651 
Q 3003 894 3003 1313 
Q 3003 1734 2745 1975 
Q 2488 2216 2034 2216 
z
M 1403 2484 
Q 997 2584 770 2862 
Q 544 3141 544 3541 
Q 544 4100 942 4425 
Q 1341 4750 2034 4750 
Q 2731 4750 3128 4425 
Q 3525 4100 3525 3541 
Q 3525 3141 3298 2862 
Q 3072 2584 2669 2484 
Q 3125 2378 3379 2068 
Q 3634 1759 3634 1313 
Q 3634 634 3220 271 
Q 2806 -91 2034 -91 
Q 1263 -91 848 271 
Q 434 634 434 1313 
Q 434 1759 690 2068 
Q 947 2378 1403 2484 
z
M 1172 3481 
Q 1172 3119 1398 2916 
Q 1625 2713 2034 2713 
Q 2441 2713 2670 2916 
Q 2900 3119 2900 3481 
Q 2900 3844 2670 4047 
Q 2441 4250 2034 4250 
Q 1625 4250 1398 4047 
Q 1172 3844 1172 3481 
z
" transform="scale(0.015625)"/>
      </defs>
      <use xlink:href="#DejaVuSans-31"/>
      <use xlink:href="#DejaVuSans-65" x="63.623047"/>
      <use xlink:href="#DejaVuSans-38" x="125.146484"/>
     </g>
    </g>
   </g>
   <g id="matplotlib.axis_2">
    <g id="ytick_1">
     <g id="line2d_7">
      <path d="M 57.6 295.488007 
L 414.72 295.488007 
" clip-path="url(#pacd7b2cdaf)" style="fill: none; stroke: #b0b0b0; stroke-width: 0.8; stroke-linecap: square"/>
     </g>
     <g id="line2d_8">
      <defs>
       <path id="me26e141154" d="M 0 0 
L -3.5 0 
" style="stroke: #000000; stroke-width: 0.8"/>
      </defs>
      <g>
       <use xlink:href="#me26e141154" x="57.6" y="295.488007" style="stroke: #000000; stroke-width: 0.8"/>
      </g>
     </g>
     <g id="text_9">
      <!-- 0 -->
      <g transform="translate(44.2375 299.287225) scale(0.1 -0.1)">
       <use xlink:href="#DejaVuSans-30"/>
      </g>
     </g>
    </g>
    <g id="ytick_2">
     <g id="line2d_9">
      <path d="M 57.6 261.888006 
L 414.72 261.888006 
" clip-path="url(#pacd7b2cdaf)" style="fill: none; stroke: #b0b0b0; stroke-width: 0.8; stroke-linecap: square"/>
     </g>
     <g id="line2d_10">
      <g>
       <use xlink:href="#me26e141154" x="57.6" y="261.888006" style="stroke: #000000; stroke-width: 0.8"/>
      </g>
     </g>
     <g id="text_10">
      <!-- 1000 -->
      <g transform="translate(25.15 265.687225) scale(0.1 -0.1)">
       <use xlink:href="#DejaVuSans-31"/>
       <use xlink:href="#DejaVuSans-30" x="63.623047"/>
       <use xlink:href="#DejaVuSans-30" x="127.246094"/>
       <use xlink:href="#DejaVuSans-30" x="190.869141"/>
      </g>
     </g>
    </g>
    <g id="ytick_3">
     <g id="line2d_11">
      <path d="M 57.6 228.288005 
L 414.72 228.288005 
" clip-path="url(#pacd7b2cdaf)" style="fill: none; stroke: #b0b0b0; stroke-width: 0.8; stroke-linecap: square"/>
     </g>
     <g id="line2d_12">
      <g>
       <use xlink:href="#me26e141154" x="57.6" y="228.288005" style="stroke: #000000; stroke-width: 0.8"/>
      </g>
     </g>
     <g id="text_11">
      <!-- 2000 -->
      <g transform="translate(25.15 232.087224) scale(0.1 -0.1)">
       <use xlink:href="#DejaVuSans-32"/>
       <use xlink:href="#DejaVuSans-30" x="63.623047"/>
       <use xlink:href="#DejaVuSans-30" x="127.246094"/>
       <use xlink:href="#DejaVuSans-30" x="190.869141"/>
      </g>
     </g>
    </g>
    <g id="ytick_4">
     <g id="line2d_13">
      <path d="M 57.6 194.688004 
L 414.72 194.688004 
" clip-path="url(#pacd7b2cdaf)" style="fill: none; stroke: #b0b0b0; stroke-width: 0.8; stroke-linecap: square"/>
     </g>
     <g id="line2d_14">
      <g>
       <use xlink:href="#me26e141154" x="57.6" y="194.688004" style="stroke: #000000; stroke-width: 0.8"/>
      </g>
     </g>
     <g id="text_12">
      <!-- 3000 -->
      <g transform="translate(25.15 198.487223) scale(0.1 -0.1)">
       <use xlink:href="#DejaVuSans-33"/>
       <use xlink:href="#DejaVuSans-30" x="63.623047"/>
       <use xlink:href="#DejaVuSans-30" x="127.246094"/>
       <use xlink:href="#DejaVuSans-30" x="190.869141"/>
      </g>
     </g>
    </g>
    <g id="ytick_5">
     <g id="line2d_15">
      <path d="M 57.6 161.088003 
L 414.72 161.088003 
" clip-path="url(#pacd7b2cdaf)" style="fill: none; stroke: #b0b0b0; stroke-width: 0.8; stroke-linecap: square"/>
     </g>
     <g id="line2d_16">
      <g>
       <use xlink:href="#me26e141154" x="57.6" y="161.088003" style="stroke: #000000; stroke-width: 0.8"/>
      </g>
     </g>
     <g id="text_13">
      <!-- 4000 -->
      <g transform="translate(25.15 164.887222) scale(0.1 -0.1)">
       <use xlink:href="#DejaVuSans-34"/>
       <use xlink:href="#DejaVuSans-30" x="63.623047"/>
       <use xlink:href="#DejaVuSans-30" x="127.246094"/>
       <use xlink:href="#DejaVuSans-30" x="190.869141"/>
      </g>
     </g>
    </g>
    <g id="ytick_6">
     <g id="line2d_17">
      <path d="M 57.6 127.488002 
L 414.72 127.488002 
" clip-path="url(#pacd7b2cdaf)" style="fill: none; stroke: #b0b0b0; stroke-width: 0.8; stroke-linecap: square"/>
     </g>
     <g id="line2d_18">
      <g>
       <use xlink:href="#me26e141154" x="57.6" y="127.488002" style="stroke: #000000; stroke-width: 0.8"/>
      </g>
     </g>
     <g id="text_14">
      <!-- 5000 -->
      <g transform="translate(25.15 131.287221) scale(0.1 -0.1)">
       <use xlink:href="#DejaVuSans-35"/>
       <use xlink:href="#DejaVuSans-30" x="63.623047"/>
       <use xlink:href="#DejaVuSans-30" x="127.246094"/>
       <use xlink:href="#DejaVuSans-30" x="190.869141"/>
      </g>
     </g>
    </g>
    <g id="ytick_7">
     <g id="line2d_19">
      <path d="M 57.6 93.888001 
L 414.72 93.888001 
" clip-path="url(#pacd7b2cdaf)" style="fill: none; stroke: #b0b0b0; stroke-width: 0.8; stroke-linecap: square"/>
     </g>
     <g id="line2d_20">
      <g>
       <use xlink:href="#me26e141154" x="57.6" y="93.888001" style="stroke: #000000; stroke-width: 0.8"/>
      </g>
     </g>
     <g id="text_15">
      <!-- 6000 -->
      <g transform="translate(25.15 97.68722) scale(0.1 -0.1)">
       <defs>
        <path id="DejaVuSans-36" d="M 2113 2584 
Q 1688 2584 1439 2293 
Q 1191 2003 1191 1497 
Q 1191 994 1439 701 
Q 1688 409 2113 409 
Q 2538 409 2786 701 
Q 3034 994 3034 1497 
Q 3034 2003 2786 2293 
Q 2538 2584 2113 2584 
z
M 3366 4563 
L 3366 3988 
Q 3128 4100 2886 4159 
Q 2644 4219 2406 4219 
Q 1781 4219 1451 3797 
Q 1122 3375 1075 2522 
Q 1259 2794 1537 2939 
Q 1816 3084 2150 3084 
Q 2853 3084 3261 2657 
Q 3669 2231 3669 1497 
Q 3669 778 3244 343 
Q 2819 -91 2113 -91 
Q 1303 -91 875 529 
Q 447 1150 447 2328 
Q 447 3434 972 4092 
Q 1497 4750 2381 4750 
Q 2619 4750 2861 4703 
Q 3103 4656 3366 4563 
z
" transform="scale(0.015625)"/>
       </defs>
       <use xlink:href="#DejaVuSans-36"/>
       <use xlink:href="#DejaVuSans-30" x="63.623047"/>
       <use xlink:href="#DejaVuSans-30" x="127.246094"/>
       <use xlink:href="#DejaVuSans-30" x="190.869141"/>
      </g>
     </g>
    </g>
    <g id="ytick_8">
     <g id="line2d_21">
      <path d="M 57.6 60.288 
L 414.72 60.288 
" clip-path="url(#pacd7b2cdaf)" style="fill: none; stroke: #b0b0b0; stroke-width: 0.8; stroke-linecap: square"/>
     </g>
     <g id="line2d_22">
      <g>
       <use xlink:href="#me26e141154" x="57.6" y="60.288" style="stroke: #000000; stroke-width: 0.8"/>
      </g>
     </g>
     <g id="text_16">
      <!-- 7000 -->
      <g transform="translate(25.15 64.087219) scale(0.1 -0.1)">
       <defs>
        <path id="DejaVuSans-37" d="M 525 4666 
L 3525 4666 
L 3525 4397 
L 1831 0 
L 1172 0 
L 2766 4134 
L 525 4134 
L 525 4666 
z
" transform="scale(0.015625)"/>
       </defs>
       <use xlink:href="#DejaVuSans-37"/>
       <use xlink:href="#DejaVuSans-30" x="63.623047"/>
       <use xlink:href="#DejaVuSans-30" x="127.246094"/>
       <use xlink:href="#DejaVuSans-30" x="190.869141"/>
      </g>
     </g>
    </g>
    <g id="text_17">
     <!-- Time [s] -->
     <g transform="translate(19.070312 194.856906) rotate(-90) scale(0.1 -0.1)">
      <defs>
       <path id="DejaVuSans-54" d="M -19 4666 
L 3928 4666 
L 3928 4134 
L 2272 4134 
L 2272 0 
L 1638 0 
L 1638 4134 
L -19 4134 
L -19 4666 
z
" transform="scale(0.015625)"/>
       <path id="DejaVuSans-69" d="M 603 3500 
L 1178 3500 
L 1178 0 
L 603 0 
L 603 3500 
z
M 603 4863 
L 1178 4863 
L 1178 4134 
L 603 4134 
L 603 4863 
z
" transform="scale(0.015625)"/>
       <path id="DejaVuSans-5b" d="M 550 4863 
L 1875 4863 
L 1875 4416 
L 1125 4416 
L 1125 -397 
L 1875 -397 
L 1875 -844 
L 550 -844 
L 550 4863 
z
" transform="scale(0.015625)"/>
       <path id="DejaVuSans-5d" d="M 1947 4863 
L 1947 -844 
L 622 -844 
L 622 -397 
L 1369 -397 
L 1369 4416 
L 622 4416 
L 622 4863 
L 1947 4863 
z
" transform="scale(0.015625)"/>
      </defs>
      <use xlink:href="#DejaVuSans-54"/>
      <use xlink:href="#DejaVuSans-69" x="57.958984"/>
      <use xlink:href="#DejaVuSans-6d" x="85.742188"/>
      <use xlink:href="#DejaVuSans-65" x="183.154297"/>
      <use xlink:href="#DejaVuSans-20" x="244.677734"/>
      <use xlink:href="#DejaVuSans-5b" x="276.464844"/>
      <use xlink:href="#DejaVuSans-73" x="315.478516"/>
      <use xlink:href="#DejaVuSans-5d" x="367.578125"/>
     </g>
    </g>
   </g>
   <g id="patch_3">
    <path d="M 57.6 307.584 
L 57.6 41.472 
" style="fill: none; stroke: #000000; stroke-width: 0.8; stroke-linejoin: miter; stroke-linecap: square"/>
   </g>
   <g id="patch_4">
    <path d="M 414.72 307.584 
L 414.72 41.472 
" style="fill: none; stroke: #000000; stroke-width: 0.8; stroke-linejoin: miter; stroke-linecap: square"/>
   </g>
   <g id="patch_5">
    <path d="M 57.6 307.584 
L 414.72 307.584 
" style="fill: none; stroke: #000000; stroke-width: 0.8; stroke-linejoin: miter; stroke-linecap: square"/>
   </g>
   <g id="patch_6">
    <path d="M 57.6 41.472 
L 414.72 41.472 
" style="fill: none; stroke: #000000; stroke-width: 0.8; stroke-linejoin: miter; stroke-linecap: square"/>
   </g>
   <g id="text_18">
    <!-- NY network -->
    <g transform="translate(201.734062 35.472) scale(0.12 -0.12)">
     <defs>
      <path id="DejaVuSans-59" d="M -13 4666 
L 666 4666 
L 1959 2747 
L 3244 4666 
L 3922 4666 
L 2272 2222 
L 2272 0 
L 1638 0 
L 1638 2222 
L -13 4666 
z
" transform="scale(0.015625)"/>
      <path id="DejaVuSans-77" d="M 269 3500 
L 844 3500 
L 1563 769 
L 2278 3500 
L 2956 3500 
L 3675 769 
L 4391 3500 
L 4966 3500 
L 4050 0 
L 3372 0 
L 2619 2869 
L 1863 0 
L 1184 0 
L 269 3500 
z
" transform="scale(0.015625)"/>
      <path id="DejaVuSans-6b" d="M 581 4863 
L 1159 4863 
L 1159 1991 
L 2875 3500 
L 3609 3500 
L 1753 1863 
L 3688 0 
L 2938 0 
L 1159 1709 
L 1159 0 
L 581 0 
L 581 4863 
z
" transform="scale(0.015625)"/>
     </defs>
     <use xlink:href="#DejaVuSans-4e"/>
     <use xlink:href="#DejaVuSans-59" x="74.804688"/>
     <use xlink:href="#DejaVuSans-20" x="135.888672"/>
     <use xlink:href="#DejaVuSans-6e" x="167.675781"/>
     <use xlink:href="#DejaVuSans-65" x="231.054688"/>
     <use xlink:href="#DejaVuSans-74" x="292.578125"/>
     <use xlink:href="#DejaVuSans-77" x="331.787109"/>
     <use xlink:href="#DejaVuSans-6f" x="413.574219"/>
     <use xlink:href="#DejaVuSans-72" x="474.755859"/>
     <use xlink:href="#DejaVuSans-6b" x="515.869141"/>
    </g>
   </g>
   <g id="legend_1">
    <g id="patch_7">
     <path d="M 64.6 78.82825 
L 133.7125 78.82825 
Q 135.7125 78.82825 135.7125 76.82825 
L 135.7125 48.472 
Q 135.7125 46.472 133.7125 46.472 
L 64.6 46.472 
Q 62.6 46.472 62.6 48.472 
L 62.6 76.82825 
Q 62.6 78.82825 64.6 78.82825 
z
" style="fill: #ffffff; opacity: 0.8; stroke: #cccccc; stroke-linejoin: miter"/>
    </g>
    <g id="PathCollection_3">
     <g>
      <use xlink:href="#ma08dd62245" x="76.6" y="55.445437" style="fill: #255f85; stroke: #255f85"/>
     </g>
    </g>
    <g id="text_19">
     <!-- MDA -->
     <g transform="translate(94.6 58.070437) scale(0.1 -0.1)">
      <defs>
       <path id="DejaVuSans-4d" d="M 628 4666 
L 1569 4666 
L 2759 1491 
L 3956 4666 
L 4897 4666 
L 4897 0 
L 4281 0 
L 4281 4097 
L 3078 897 
L 2444 897 
L 1241 4097 
L 1241 0 
L 628 0 
L 628 4666 
z
" transform="scale(0.015625)"/>
       <path id="DejaVuSans-44" d="M 1259 4147 
L 1259 519 
L 2022 519 
Q 2988 519 3436 956 
Q 3884 1394 3884 2338 
Q 3884 3275 3436 3711 
Q 2988 4147 2022 4147 
L 1259 4147 
z
M 628 4666 
L 1925 4666 
Q 3281 4666 3915 4102 
Q 4550 3538 4550 2338 
Q 4550 1131 3912 565 
Q 3275 0 1925 0 
L 628 0 
L 628 4666 
z
" transform="scale(0.015625)"/>
       <path id="DejaVuSans-41" d="M 2188 4044 
L 1331 1722 
L 3047 1722 
L 2188 4044 
z
M 1831 4666 
L 2547 4666 
L 4325 0 
L 3669 0 
L 3244 1197 
L 1141 1197 
L 716 0 
L 50 0 
L 1831 4666 
z
" transform="scale(0.015625)"/>
      </defs>
      <use xlink:href="#DejaVuSans-4d"/>
      <use xlink:href="#DejaVuSans-44" x="86.279297"/>
      <use xlink:href="#DejaVuSans-41" x="161.53125"/>
     </g>
    </g>
    <g id="PathCollection_4">
     <g>
      <use xlink:href="#me701093fc1" x="76.6" y="70.123562" style="fill: #ffc857; stroke: #ffc857"/>
     </g>
    </g>
    <g id="text_20">
     <!-- Martins -->
     <g transform="translate(94.6 72.748562) scale(0.1 -0.1)">
      <use xlink:href="#DejaVuSans-4d"/>
      <use xlink:href="#DejaVuSans-61" x="86.279297"/>
      <use xlink:href="#DejaVuSans-72" x="147.558594"/>
      <use xlink:href="#DejaVuSans-74" x="188.671875"/>
      <use xlink:href="#DejaVuSans-69" x="227.880859"/>
      <use xlink:href="#DejaVuSans-6e" x="255.664062"/>
      <use xlink:href="#DejaVuSans-73" x="319.042969"/>
     </g>
    </g>
   </g>
  </g>
 </g>
 <defs>
  <clipPath id="pacd7b2cdaf">
   <rect x="57.6" y="41.472" width="357.12" height="266.112"/>
  </clipPath>
 </defs>
</svg>
